<svg width="0" height="0" class="hidden">
  <symbol xmlns="http://www.w3.org/2000/svg" viewBox="0 0 24 24" id="check">
    <path d="M21,7L9,19L3.5,13.5L4.91,12.09L9,16.17L19.59,5.59L21,7Z"></path>
  </symbol>
  <symbol xmlns="http://www.w3.org/2000/svg" xmlns:xlink="http://www.w3.org/1999/xlink" aria-hidden="true" role="img" preserveAspectRatio="xMidYMid meet" viewBox="0 0 36 36" id="cross">
    <path fill="#DD2E44" d="M21.533 18.002L33.768 5.768a2.5 2.5 0 0 0-3.535-3.535L17.998 14.467L5.764 2.233a2.498 2.498 0 0 0-3.535 0a2.498 2.498 0 0 0 0 3.535l12.234 12.234L2.201 30.265a2.498 2.498 0 0 0 1.768 4.267c.64 0 1.28-.244 1.768-.732l12.262-12.263l12.234 12.234a2.493 2.493 0 0 0 1.768.732a2.5 2.5 0 0 0 1.768-4.267L21.533 18.002z"></path>
  </symbol>
  <symbol xmlns="http://www.w3.org/2000/svg" viewBox="0 0 24 24" id="message">
    <path d="M20,2H4A2,2 0 0,0 2,4V22L6,18H20A2,2 0 0,0 22,16V4A2,2 0 0,0 20,2M8,14H6V12H8V14M8,11H6V9H8V11M8,8H6V6H8V8M15,14H10V12H15V14M18,11H10V9H18V11M18,8H10V6H18V8Z"></path>
  </symbol>
</svg>