<svg width="0" height="0" class="hidden">
  <symbol xmlns="http://www.w3.org/2000/svg" viewBox="0 0 24 24" id="magnify">
    <path d="M9.5,4C13.09,4 16,6.91 16,10.5C16,12.12 15.41,13.6 14.43,14.73L20.08,20.38L19.37,21.09L13.72,15.44C12.59,16.41 11.11,17 9.5,17C5.91,17 3,14.09 3,10.5C3,6.91 5.91,4 9.5,4M9.5,5C6.46,5 4,7.46 4,10.5C4,13.54 6.46,16 9.5,16C12.54,16 15,13.54 15,10.5C15,7.46 12.54,5 9.5,5Z"></path>
  </symbol>
  <symbol xmlns="http://www.w3.org/2000/svg" viewBox="0 0 24 24" id="filter-menu">
    <path d="M11 11L16.76 3.62A1 1 0 0 0 16.59 2.22A1 1 0 0 0 16 2H2A1 1 0 0 0 1.38 2.22A1 1 0 0 0 1.21 3.62L7 11V16.87A1 1 0 0 0 7.29 17.7L9.29 19.7A1 1 0 0 0 10.7 19.7A1 1 0 0 0 11 18.87V11M13 16L18 21L23 16Z"></path>
  </symbol>
  <symbol xmlns="http://www.w3.org/2000/svg" viewBox="0 0 24 24" id="plus">
    <path d="M19,13H13V19H11V13H5V11H11V5H13V11H19V13Z"></path>
  </symbol>
</svg>