<svg width="0" height="0" class="hidden">
  <symbol version="1.1" id="camcorder" xmlns="http://www.w3.org/2000/svg" xmlns:xlink="http://www.w3.org/1999/xlink" x="0px" y="0px" enable-background="new 0 0 92 92" xml:space="preserve" viewBox="0 0 92 92">
    <path id="XMLID_1936_" d="M89.8,21.4c-1.4-0.7-3.2-0.5-4.4,0.4L69,33.9V25c0-2.2-1.4-4-3.6-4H4c-2.2,0-4,1.8-4,4v42c0,2.2,1.8,4,4,4
	h61.4c2.2,0,3.6-1.8,3.6-4v-8.9l16.4,12.1c0.7,0.5,1.7,0.8,2.5,0.8c0.6,0,1.3-0.1,1.8-0.4c1.4-0.7,2.3-2.1,2.3-3.6V25
	C92,23.5,91.1,22.1,89.8,21.4z M61,63H8V29h53V63z M84,59L70,48.4v-4.8L84,33V59z"></path>
  </symbol>
  <symbol version="1.1" id="camera" xmlns="http://www.w3.org/2000/svg" xmlns:xlink="http://www.w3.org/1999/xlink" x="0px" y="0px" enable-background="new 0 0 92 92" xml:space="preserve" viewBox="0 0 92 92">
    <path id="XMLID_1160_" d="M46,27c-12.6,0-22.9,10.4-22.9,23.2c0,12.8,10.3,23.2,22.9,23.2s22.9-10.4,22.9-23.2
	C68.9,37.4,58.6,27,46,27z M46,65.5c-8.2,0-14.9-6.8-14.9-15.2S37.8,35,46,35s14.9,6.8,14.9,15.2S54.2,65.5,46,65.5z M57.1,51.2
	c-0.2,1.8-1.7,3-3.5,3c-0.2,0-0.3,0-0.5,0c-1.9-0.3-3.3-2-3-3.9c0.4-2.9-3-4.5-3.2-4.6c-1.7-0.8-2.5-2.9-1.7-4.6
	c0.8-1.7,2.8-2.5,4.6-1.8C53,40.7,58,44.7,57.1,51.2z M49.4,55.6c0.7,0.7,1.2,1.8,1.2,2.8c0,1-0.4,2.1-1.2,2.8
	c-0.8,0.7-1.8,1.2-2.8,1.2s-2.1-0.4-2.8-1.2c-0.7-0.8-1.2-1.8-1.2-2.8c0-1.1,0.4-2.1,1.2-2.8c0.8-0.8,1.8-1.2,2.8-1.2
	S48.7,54.8,49.4,55.6z M88,26H72.6l-4.3-16c-0.5-1.7-2.1-3-3.9-3H27.5c-1.8,0-3.4,1.3-3.9,3l-4.3,16H4c-2.2,0-4,1.7-4,3.9V81
	c0,2.2,1.8,4,4,4h84c2.2,0,4-1.8,4-4V29.9C92,27.7,90.2,26,88,26z M84,77H8V34h14.4c1.8,0,3.4-1.3,3.9-3l4.3-16h30.8l4.3,16
	c0.5,1.7,2.1,3,3.9,3H84V77z"></path>
  </symbol>
  <symbol version="1.1" id="calendar" xmlns="http://www.w3.org/2000/svg" xmlns:xlink="http://www.w3.org/1999/xlink" x="0px" y="0px" enable-background="new 0 0 92 92" xml:space="preserve" viewBox="0 0 92 92">
    <path id="XMLID_1146_" d="M22,21.8V9c0-2.8,2.2-5,5-5s5,2.2,5,5v12.8c0,2.8-2.2,5-5,5S22,24.6,22,21.8z M65,26.8c2.8,0,5-2.2,5-5V9
	c0-2.8-2.2-5-5-5s-5,2.2-5,5v12.8C60,24.6,62.2,26.8,65,26.8z M92,15.4V83c0,2.2-1.8,4-4,4H4c-2.2,0-4-1.8-4-4V15.4
	C0,13.2,1.8,11,4,11h9.3c2.2,0,4,1.8,4,4s-1.8,4-4,4H8v17h76V19h-5.3c-2.2,0-4-1.8-4-4s1.8-4,4-4H88C90.2,11,92,13.2,92,15.4z
	 M84,79V43H8v36H84z M39.7,19h12.6c2.2,0,4-1.8,4-4s-1.8-4-4-4H39.7c-2.2,0-4,1.8-4,4S37.5,19,39.7,19z"></path>
  </symbol>
</svg>